<svg xmlns="http://www.w3.org/2000/svg" xmlns:xlink="http://www.w3.org/1999/xlink" width="1024" zoomAndPan="magnify" viewBox="0 0 768 767.999994" height="1024" preserveAspectRatio="xMidYMid meet" version="1.0"><path fill="#ffffff" d="M 369.09375 73.855469 C 360.042969 74.746094 332.5 79.464844 320.640625 82.140625 C 279.582031 91.449219 229.597656 114.914062 196.316406 140.542969 C 176.554688 155.589844 149.902344 182.875 132.945312 205.0625 C 100.683594 247.523438 77.988281 303.503906 70.589844 358.714844 C 68.167969 376.820312 68.550781 427.441406 71.230469 444.019531 C 73.777344 459.832031 75.945312 465.058594 81.300781 467.480469 C 91.375 472.328125 124.527344 471.179688 147.351562 465.3125 C 153.984375 463.65625 173.109375 457.28125 189.941406 451.160156 C 244.773438 431.394531 267.597656 426.933594 309.800781 427.953125 C 331.480469 428.464844 339.894531 429.101562 353.792969 431.777344 C 385.160156 437.898438 420.609375 448.609375 495.332031 474.75 C 563.933594 498.722656 608.179688 510.582031 652.167969 516.828125 C 686.46875 521.800781 687.109375 521.417969 698.074219 491.070312 C 704.320312 473.472656 704.832031 468.882812 700.625 465.570312 C 697.820312 463.273438 696.417969 463.144531 684.8125 464.167969 C 647.707031 467.097656 614.9375 463.144531 575.664062 451.03125 C 537.792969 439.175781 511.523438 425.914062 464.855469 394.800781 C 406.710938 355.910156 386.945312 348.640625 345.25 350.171875 C 321.023438 351.0625 297.179688 356.800781 278.5625 366.363281 C 270.65625 370.445312 272.570312 368.148438 282.386719 361.902344 C 295.519531 353.488281 310.3125 346.347656 325.484375 341.117188 C 337.980469 336.910156 340.40625 336.527344 353.792969 336.527344 C 361.828125 336.398438 370.113281 336.910156 372.027344 337.421875 C 377 338.824219 375.597656 336.910156 367.4375 330.789062 C 355.324219 321.863281 341.042969 316.253906 326.761719 314.59375 L 318.984375 313.703125 L 324.976562 310.644531 C 336.324219 304.90625 349.074219 302.355469 367.183594 302.226562 C 390.773438 301.972656 405.945312 305.667969 427.75 316.761719 C 440.117188 323.011719 452.613281 331.042969 487.679688 355.144531 C 498.519531 362.539062 512.925781 371.976562 519.558594 376.054688 C 544.679688 391.355469 579.617188 406.785156 602.695312 412.777344 C 630.875 420.046875 669.894531 424 694.757812 421.832031 C 704.578125 421.066406 706.488281 420.558594 709.933594 417.371094 L 714.011719 413.800781 L 714.523438 396.96875 C 715.414062 362.792969 710.316406 328.875 699.476562 296.234375 C 682.136719 244.464844 656.632812 203.660156 616.976562 164.640625 C 601.421875 149.46875 594.789062 143.984375 576.300781 130.851562 C 536.515625 102.800781 488.828125 83.925781 437.949219 76.277344 C 424.945312 74.363281 380.699219 72.835938 369.09375 73.855469 Z M 427.113281 117.082031 C 443.816406 119.25 470.339844 125.878906 486.40625 131.617188 C 492.398438 133.914062 505.277344 139.523438 515.09375 144.367188 C 583.824219 178.160156 636.867188 239.363281 659.054688 310.515625 C 664.027344 326.328125 668.234375 345.199219 669.511719 357.820312 C 670.277344 365.601562 670.148438 366.109375 666.578125 370.191406 C 663.390625 373.761719 661.734375 374.527344 655.867188 375.035156 C 639.929688 376.3125 603.589844 365.726562 573.75 351.0625 C 556.410156 342.648438 532.183594 327.347656 515.222656 314.339844 C 497.5 300.695312 442.414062 250.96875 411.046875 220.238281 C 395.234375 204.679688 390.515625 201.75 385.671875 203.914062 C 384.269531 204.554688 371.007812 216.539062 356.214844 230.566406 C 325.359375 259.511719 279.453125 300.953125 267.085938 310.898438 C 225.644531 343.921875 184.714844 365.601562 149.519531 372.867188 C 132.6875 376.3125 124.144531 375.800781 119.429688 370.957031 C 116.113281 367.769531 115.984375 367.003906 116.238281 356.417969 C 116.496094 343.285156 123 316.507812 130.140625 298.273438 C 163.546875 214.625 226.027344 155.714844 310.3125 128.554688 C 347.671875 116.570312 390.898438 112.363281 427.113281 117.082031 Z M 427.113281 117.082031 " fill-opacity="1" fill-rule="nonzero"/><path fill="#ffffff" d="M 376.746094 155.335938 C 374.707031 157.757812 376.109375 163.238281 379.167969 164.898438 C 383.25 167.066406 388.222656 164.386719 388.222656 160.050781 C 388.222656 158.140625 387.585938 155.84375 386.691406 154.953125 C 384.523438 152.785156 378.660156 153.039062 376.746094 155.335938 Z M 376.746094 155.335938 " fill-opacity="1" fill-rule="nonzero"/><path fill="#ffffff" d="M 458.992188 157.757812 C 445.984375 163.878906 439.226562 174.589844 439.226562 189.253906 C 439.226562 198.179688 441.648438 204.296875 448.28125 211.4375 C 455.421875 219.089844 464.347656 222.789062 474.292969 222.023438 C 483.21875 221.257812 488.191406 218.960938 495.457031 212.460938 C 503.363281 205.320312 506.167969 199.070312 506.042969 188.488281 C 506.042969 180.835938 505.53125 178.414062 502.214844 172.546875 C 493.164062 156.480469 474.929688 150.234375 458.992188 157.757812 Z M 458.992188 157.757812 " fill-opacity="1" fill-rule="nonzero"/><path fill="#ffffff" d="M 305.46875 170.890625 C 298.964844 174.332031 295.777344 179.304688 295.902344 185.9375 C 296.160156 196.519531 305.976562 204.554688 316.179688 202.640625 C 322.171875 201.492188 329.183594 194.609375 330.203125 188.871094 C 332.625 175.734375 317.324219 164.640625 305.46875 170.890625 Z M 305.46875 170.890625 " fill-opacity="1" fill-rule="nonzero"/><path fill="#ffffff" d="M 231.765625 199.324219 C 227.300781 202.003906 223.730469 207.742188 223.730469 212.078125 C 223.730469 216.667969 227.683594 223.550781 231.511719 225.464844 C 239.925781 229.929688 250.765625 225.71875 254.078125 216.921875 C 255.738281 212.585938 255.609375 211.695312 253.058594 206.339844 C 248.597656 197.15625 240.054688 194.226562 231.765625 199.324219 Z M 231.765625 199.324219 " fill-opacity="1" fill-rule="nonzero"/><path fill="#ffffff" d="M 543.148438 217.433594 C 538.429688 219.980469 536.132812 224.0625 536.132812 229.671875 C 536.132812 240.511719 546.589844 245.996094 556.027344 240.257812 C 560.746094 237.453125 563.550781 231.332031 562.402344 226.613281 C 561 221.128906 554.878906 215.902344 549.90625 215.902344 C 547.609375 215.902344 544.550781 216.667969 543.148438 217.433594 Z M 543.148438 217.433594 " fill-opacity="1" fill-rule="nonzero"/><path fill="#ffffff" d="M 293.097656 230.949219 C 290.804688 232.476562 289.78125 237.324219 291.3125 240.128906 C 293.351562 243.953125 299.601562 243.570312 302.277344 239.492188 C 304.191406 236.558594 304.191406 236.046875 302.277344 233.117188 C 300.238281 229.929688 296.03125 229.035156 293.097656 230.949219 Z M 293.097656 230.949219 " fill-opacity="1" fill-rule="nonzero"/><path fill="#ffffff" d="M 487.042969 250.839844 C 482.960938 256.960938 491.125 263.589844 496.605469 258.617188 C 499.792969 255.683594 499.792969 252.625 496.859375 249.949219 C 493.546875 246.886719 489.339844 247.269531 487.042969 250.839844 Z M 487.042969 250.839844 " fill-opacity="1" fill-rule="nonzero"/><path fill="#ffffff" d="M 253.1875 259.128906 C 250 262.316406 249.871094 264.738281 252.550781 267.417969 C 256.246094 271.242188 264.535156 268.691406 264.535156 263.847656 C 264.535156 261.421875 261.601562 258.363281 258.542969 257.34375 C 256.628906 256.832031 254.972656 257.34375 253.1875 259.128906 Z M 253.1875 259.128906 " fill-opacity="1" fill-rule="nonzero"/><path fill="#ffffff" d="M 181.015625 264.230469 C 164.3125 271.878906 161.378906 291.386719 174.894531 304.140625 C 190.835938 319.1875 218.757812 304.648438 215.570312 282.84375 C 213.148438 267.035156 195.550781 257.46875 181.015625 264.230469 Z M 181.015625 264.230469 " fill-opacity="1" fill-rule="nonzero"/><path fill="#ffffff" d="M 592.621094 266.90625 C 584.84375 271.625 582.546875 280.675781 587.140625 288.199219 C 590.453125 293.683594 595.171875 296.617188 601.039062 296.617188 C 610.601562 296.617188 617.742188 289.476562 617.742188 279.914062 C 617.742188 267.925781 603.207031 260.402344 592.621094 266.90625 Z M 592.621094 266.90625 " fill-opacity="1" fill-rule="nonzero"/><path fill="#ffffff" d="M 520.707031 274.683594 C 517.261719 281.316406 526.570312 288.074219 531.289062 282.207031 C 532.5625 280.675781 533.585938 278.636719 533.585938 277.746094 C 533.585938 272.261719 523.382812 269.839844 520.707031 274.683594 Z M 520.707031 274.683594 " fill-opacity="1" fill-rule="nonzero"/><path fill="#ffffff" d="M 566.226562 313.191406 C 563.804688 314.976562 563.039062 321.097656 564.953125 323.011719 C 567.757812 325.5625 571.710938 325.6875 574.261719 323.140625 C 577.574219 319.824219 577.574219 317.273438 574.386719 314.085938 C 571.457031 311.152344 569.414062 310.898438 566.226562 313.191406 Z M 566.226562 313.191406 " fill-opacity="1" fill-rule="nonzero"/><path fill="#ffffff" d="M 152.453125 335.636719 C 148.882812 339.207031 149.136719 342.902344 152.964844 345.453125 C 155.640625 347.238281 156.917969 347.367188 159.339844 346.21875 C 162.398438 344.816406 163.164062 342.777344 162.527344 338.3125 C 162.015625 333.722656 155.894531 332.191406 152.453125 335.636719 Z M 152.453125 335.636719 " fill-opacity="1" fill-rule="nonzero"/><path fill="#ffffff" d="M 621.820312 335.253906 C 617.871094 338.058594 618.507812 343.285156 623.097656 345.835938 C 626.15625 347.621094 626.667969 347.621094 629.089844 345.453125 C 632.53125 342.265625 632.53125 337.675781 628.960938 335.253906 C 625.390625 332.703125 625.390625 332.703125 621.820312 335.253906 Z M 621.820312 335.253906 " fill-opacity="1" fill-rule="nonzero"/><path fill="#ffffff" d="M 283.023438 471.050781 C 261.21875 472.964844 241.710938 478.449219 203.074219 493.367188 C 161.890625 509.175781 149.648438 511.855469 117.898438 511.855469 C 99.535156 511.726562 97.625 511.984375 95.582031 514.277344 C 89.972656 520.398438 95.839844 532.640625 109.226562 542.714844 C 124.273438 554.0625 174.257812 559.035156 209.707031 552.660156 C 231.765625 548.832031 243.878906 544.878906 284.300781 528.304688 C 304.574219 520.015625 326.761719 511.472656 333.390625 509.433594 C 349.457031 504.332031 373.429688 499.359375 387.328125 498.210938 C 396.511719 497.445312 398.421875 496.9375 398.421875 495.152344 C 398.421875 492.472656 395.617188 491.199219 374.832031 484.058594 C 353.15625 476.789062 334.03125 472.582031 313.753906 470.925781 C 304.703125 470.285156 296.667969 469.777344 295.902344 469.777344 C 295.136719 469.902344 289.402344 470.414062 283.023438 471.050781 Z M 283.023438 471.050781 " fill-opacity="1" fill-rule="nonzero"/><path fill="#ffffff" d="M 459.246094 526.519531 C 429.152344 531.109375 403.011719 540.929688 341.679688 570.382812 C 291.1875 594.609375 269.765625 601.625 236.484375 604.8125 C 214.042969 606.980469 187.136719 604.300781 164.695312 597.796875 C 150.667969 593.71875 147.863281 593.71875 145.183594 597.796875 C 143.273438 600.730469 143.273438 601.242188 145.949219 605.449219 C 150.03125 612.078125 168.648438 628.019531 182.035156 636.304688 C 210.597656 653.902344 236.867188 660.914062 274.738281 661.042969 C 317.324219 661.171875 344.484375 653.773438 410.28125 624.066406 C 477.222656 593.71875 516.371094 584.410156 559.851562 588.105469 C 576.683594 589.507812 581.527344 590.273438 610.601562 595.757812 C 618.378906 597.289062 627.175781 598.433594 630.367188 598.433594 C 638.015625 598.308594 647.578125 593.078125 653.0625 585.9375 C 658.164062 579.308594 658.546875 573.824219 654.335938 570.128906 C 650.640625 566.8125 563.675781 536.210938 542.765625 530.980469 C 517.519531 524.480469 483.601562 522.695312 459.246094 526.519531 Z M 459.246094 526.519531 " fill-opacity="1" fill-rule="nonzero"/><path fill="#ffffff" d="M 514.203125 632.863281 C 496.351562 636.050781 471.359375 644.59375 444.710938 656.582031 C 397.914062 677.621094 389.75 681.191406 378.660156 685.144531 C 362.210938 690.882812 346.144531 694.832031 331.863281 696.617188 C 311.203125 699.167969 309.675781 703.632812 327.910156 707.96875 C 357.617188 714.851562 402.886719 716.894531 434.761719 712.558594 C 454.910156 709.878906 487.171875 701.972656 506.167969 695.089844 C 533.328125 685.144531 565.335938 667.800781 585.863281 651.609375 C 592.367188 646.507812 593.640625 644.976562 593.257812 642.171875 C 593.003906 640.386719 591.472656 637.835938 589.6875 636.5625 C 581.273438 630.3125 539.960938 628.402344 514.203125 632.863281 Z M 514.203125 632.863281 " fill-opacity="1" fill-rule="nonzero"/><path fill="#00a3e4" d="M 360.582031 72.113281 C 351.734375 72.984375 324.824219 77.597656 313.238281 80.210938 C 273.121094 89.308594 224.285156 112.230469 191.769531 137.273438 C 172.457031 151.972656 146.417969 178.632812 129.847656 200.3125 C 98.328125 241.800781 76.152344 296.492188 68.925781 350.4375 C 66.558594 368.128906 66.933594 417.589844 69.550781 433.785156 C 72.042969 449.234375 74.160156 454.339844 79.390625 456.707031 C 89.234375 461.441406 121.625 460.320312 143.925781 454.589844 C 150.40625 452.96875 169.09375 446.742188 185.539062 440.761719 C 239.109375 421.449219 261.410156 417.089844 302.648438 418.085938 C 323.828125 418.585938 332.050781 419.207031 345.628906 421.824219 C 376.277344 427.804688 410.914062 438.269531 483.917969 463.808594 C 550.945312 487.230469 594.175781 498.816406 637.160156 504.921875 C 670.671875 509.78125 671.296875 509.40625 682.007812 479.757812 C 688.113281 462.5625 688.613281 458.078125 684.5 454.839844 C 681.761719 452.597656 680.390625 452.472656 669.054688 453.46875 C 632.796875 456.335938 600.78125 452.472656 562.40625 440.636719 C 525.40625 429.050781 499.742188 416.09375 454.144531 385.695312 C 397.332031 347.695312 378.023438 340.59375 337.28125 342.089844 C 313.613281 342.960938 290.316406 348.566406 272.125 357.914062 C 264.402344 361.898438 266.269531 359.65625 275.863281 353.550781 C 288.695312 345.328125 303.148438 338.351562 317.972656 333.246094 C 330.183594 329.132812 332.550781 328.757812 345.628906 328.757812 C 353.480469 328.632812 361.578125 329.132812 363.445312 329.632812 C 368.304688 331 366.933594 329.132812 358.960938 323.152344 C 347.125 314.433594 333.171875 308.949219 319.21875 307.332031 L 311.617188 306.457031 L 317.472656 303.46875 C 328.5625 297.863281 341.019531 295.371094 358.710938 295.246094 C 381.761719 294.996094 396.585938 298.609375 417.890625 309.449219 C 429.972656 315.554688 442.183594 323.402344 476.445312 346.949219 C 487.035156 354.175781 501.113281 363.394531 507.589844 367.378906 C 532.132812 382.332031 566.269531 397.40625 588.820312 403.261719 C 616.351562 410.363281 654.476562 414.222656 678.769531 412.105469 C 688.363281 411.359375 690.230469 410.859375 693.597656 407.746094 L 697.582031 404.257812 L 698.082031 387.8125 C 698.953125 354.421875 693.96875 321.285156 683.378906 289.390625 C 666.4375 238.808594 641.519531 198.941406 602.773438 160.820312 C 587.574219 145.992188 581.097656 140.636719 563.03125 127.804688 C 524.160156 100.394531 477.566406 81.957031 427.855469 74.480469 C 415.148438 72.613281 371.917969 71.117188 360.582031 72.113281 Z M 417.265625 114.347656 C 433.585938 116.464844 459.5 122.945312 475.199219 128.550781 C 481.054688 130.792969 493.636719 136.277344 503.230469 141.007812 C 570.382812 174.023438 622.207031 233.824219 643.886719 303.34375 C 648.746094 318.792969 652.855469 337.230469 654.101562 349.566406 C 654.851562 357.164062 654.726562 357.664062 651.238281 361.648438 C 648.121094 365.136719 646.503906 365.886719 640.773438 366.382812 C 625.199219 367.628906 589.691406 357.289062 560.539062 342.960938 C 543.597656 334.738281 519.925781 319.789062 503.355469 307.082031 C 486.039062 293.75 432.21875 245.164062 401.570312 215.136719 C 386.121094 199.9375 381.511719 197.074219 376.777344 199.191406 C 375.40625 199.8125 362.449219 211.523438 347.996094 225.230469 C 317.847656 253.511719 272.996094 294 260.914062 303.71875 C 220.421875 335.984375 180.429688 357.164062 146.046875 364.265625 C 129.601562 367.628906 121.253906 367.132812 116.644531 362.398438 C 113.402344 359.28125 113.28125 358.535156 113.527344 348.195312 C 113.777344 335.363281 120.132812 309.199219 127.109375 291.382812 C 159.75 209.65625 220.796875 152.097656 303.148438 125.5625 C 339.648438 113.851562 381.882812 109.738281 417.265625 114.347656 Z M 417.265625 114.347656 " fill-opacity="1" fill-rule="nonzero"/><path fill="#00a3e4" d="M 368.054688 151.722656 C 366.0625 154.089844 367.433594 159.449219 370.421875 161.066406 C 374.410156 163.1875 379.269531 160.570312 379.269531 156.332031 C 379.269531 154.464844 378.644531 152.222656 377.773438 151.351562 C 375.65625 149.230469 369.925781 149.480469 368.054688 151.722656 Z M 368.054688 151.722656 " fill-opacity="1" fill-rule="nonzero"/><path fill="#00a3e4" d="M 448.414062 154.089844 C 435.707031 160.070312 429.101562 170.535156 429.101562 184.863281 C 429.101562 193.585938 431.46875 199.566406 437.949219 206.542969 C 444.925781 214.015625 453.644531 217.628906 463.363281 216.882812 C 472.085938 216.132812 476.941406 213.890625 484.042969 207.539062 C 491.769531 200.5625 494.507812 194.457031 494.386719 184.117188 C 494.386719 176.640625 493.886719 174.273438 490.648438 168.542969 C 481.800781 152.84375 463.984375 146.742188 448.414062 154.089844 Z M 448.414062 154.089844 " fill-opacity="1" fill-rule="nonzero"/><path fill="#00a3e4" d="M 298.414062 166.921875 C 292.058594 170.289062 288.945312 175.144531 289.070312 181.625 C 289.316406 191.964844 298.910156 199.8125 308.878906 197.945312 C 314.734375 196.824219 321.585938 190.097656 322.582031 184.488281 C 324.949219 171.65625 310 160.820312 298.414062 166.921875 Z M 298.414062 166.921875 " fill-opacity="1" fill-rule="nonzero"/><path fill="#00a3e4" d="M 226.402344 194.707031 C 222.042969 197.320312 218.554688 202.929688 218.554688 207.164062 C 218.554688 211.648438 222.414062 218.378906 226.152344 220.246094 C 234.375 224.605469 244.964844 220.496094 248.203125 211.898438 C 249.824219 207.664062 249.699219 206.789062 247.207031 201.558594 C 242.847656 192.585938 234.5 189.722656 226.402344 194.707031 Z M 226.402344 194.707031 " fill-opacity="1" fill-rule="nonzero"/><path fill="#00a3e4" d="M 530.640625 212.398438 C 526.03125 214.886719 523.785156 218.875 523.785156 224.355469 C 523.785156 234.945312 534.003906 240.304688 543.222656 234.699219 C 547.832031 231.957031 550.574219 225.976562 549.453125 221.367188 C 548.082031 216.011719 542.101562 210.902344 537.242188 210.902344 C 535 210.902344 532.007812 211.648438 530.640625 212.398438 Z M 530.640625 212.398438 " fill-opacity="1" fill-rule="nonzero"/><path fill="#00a3e4" d="M 286.328125 225.601562 C 284.085938 227.097656 283.089844 231.832031 284.582031 234.574219 C 286.578125 238.3125 292.683594 237.9375 295.296875 233.949219 C 297.167969 231.085938 297.167969 230.585938 295.296875 227.722656 C 293.304688 224.605469 289.195312 223.734375 286.328125 225.601562 Z M 286.328125 225.601562 " fill-opacity="1" fill-rule="nonzero"/><path fill="#00a3e4" d="M 475.820312 245.039062 C 471.835938 251.019531 479.808594 257.496094 485.164062 252.636719 C 488.28125 249.773438 488.28125 246.78125 485.414062 244.167969 C 482.175781 241.175781 478.0625 241.550781 475.820312 245.039062 Z M 475.820312 245.039062 " fill-opacity="1" fill-rule="nonzero"/><path fill="#00a3e4" d="M 247.332031 253.136719 C 244.21875 256.25 244.09375 258.617188 246.710938 261.234375 C 250.324219 264.972656 258.421875 262.480469 258.421875 257.746094 C 258.421875 255.378906 255.554688 252.386719 252.566406 251.390625 C 250.695312 250.894531 249.078125 251.390625 247.332031 253.136719 Z M 247.332031 253.136719 " fill-opacity="1" fill-rule="nonzero"/><path fill="#00a3e4" d="M 176.816406 258.121094 C 160.496094 265.59375 157.632812 284.65625 170.835938 297.113281 C 186.410156 311.816406 213.695312 297.613281 210.582031 276.308594 C 208.214844 260.859375 191.019531 251.515625 176.816406 258.121094 Z M 176.816406 258.121094 " fill-opacity="1" fill-rule="nonzero"/><path fill="#00a3e4" d="M 578.976562 260.734375 C 571.378906 265.34375 569.136719 274.191406 573.621094 281.542969 C 576.859375 286.898438 581.46875 289.765625 587.199219 289.765625 C 596.542969 289.765625 603.519531 282.789062 603.519531 273.445312 C 603.519531 261.734375 589.320312 254.382812 578.976562 260.734375 Z M 578.976562 260.734375 " fill-opacity="1" fill-rule="nonzero"/><path fill="#00a3e4" d="M 508.710938 268.335938 C 505.347656 274.8125 514.441406 281.417969 519.050781 275.6875 C 520.296875 274.191406 521.296875 272.199219 521.296875 271.324219 C 521.296875 265.96875 511.328125 263.601562 508.710938 268.335938 Z M 508.710938 268.335938 " fill-opacity="1" fill-rule="nonzero"/><path fill="#00a3e4" d="M 553.1875 305.960938 C 550.820312 307.703125 550.074219 313.683594 551.941406 315.554688 C 554.683594 318.046875 558.546875 318.167969 561.039062 315.679688 C 564.277344 312.4375 564.277344 309.945312 561.164062 306.832031 C 558.296875 303.96875 556.304688 303.71875 553.1875 305.960938 Z M 553.1875 305.960938 " fill-opacity="1" fill-rule="nonzero"/><path fill="#00a3e4" d="M 148.910156 327.886719 C 145.421875 331.375 145.671875 334.988281 149.410156 337.480469 C 152.023438 339.222656 153.269531 339.347656 155.636719 338.226562 C 158.628906 336.855469 159.375 334.863281 158.753906 330.503906 C 158.253906 326.019531 152.273438 324.523438 148.910156 327.886719 Z M 148.910156 327.886719 " fill-opacity="1" fill-rule="nonzero"/><path fill="#00a3e4" d="M 607.507812 327.511719 C 603.644531 330.253906 604.269531 335.363281 608.753906 337.855469 C 611.742188 339.597656 612.242188 339.597656 614.609375 337.480469 C 617.972656 334.367188 617.972656 329.878906 614.484375 327.511719 C 610.996094 325.023438 610.996094 325.023438 607.507812 327.511719 Z M 607.507812 327.511719 " fill-opacity="1" fill-rule="nonzero"/><path fill="#00a3e4" d="M 276.484375 460.195312 C 255.183594 462.066406 236.121094 467.421875 198.371094 482 C 158.128906 497.445312 146.167969 500.0625 115.148438 500.0625 C 97.207031 499.9375 95.339844 500.1875 93.347656 502.429688 C 87.863281 508.410156 93.59375 520.371094 106.675781 530.214844 C 121.378906 541.300781 170.214844 546.160156 204.847656 539.929688 C 226.402344 536.191406 238.238281 532.332031 277.730469 516.136719 C 297.539062 508.035156 319.21875 499.691406 325.695312 497.695312 C 341.394531 492.714844 364.816406 487.855469 378.394531 486.734375 C 387.367188 485.984375 389.234375 485.488281 389.234375 483.742188 C 389.234375 481.125 386.496094 479.878906 366.1875 472.902344 C 345.007812 465.800781 326.320312 461.691406 306.511719 460.070312 C 297.664062 459.449219 289.816406 458.949219 289.070312 458.949219 C 288.320312 459.074219 282.714844 459.574219 276.484375 460.195312 Z M 276.484375 460.195312 " fill-opacity="1" fill-rule="nonzero"/><path fill="#00a3e4" d="M 448.660156 514.390625 C 419.261719 518.875 393.71875 528.46875 333.792969 557.246094 C 284.460938 580.917969 263.527344 587.769531 231.011719 590.886719 C 209.085938 593.003906 182.796875 590.386719 160.871094 584.035156 C 147.167969 580.046875 144.425781 580.046875 141.808594 584.035156 C 139.941406 586.898438 139.941406 587.398438 142.558594 591.507812 C 146.542969 597.988281 164.734375 613.558594 177.8125 621.660156 C 205.722656 638.851562 231.386719 645.703125 268.386719 645.828125 C 310 645.953125 336.535156 638.726562 400.820312 609.699219 C 466.230469 580.046875 504.476562 570.953125 546.960938 574.566406 C 563.40625 575.9375 568.140625 576.683594 596.542969 582.039062 C 604.144531 583.535156 612.742188 584.65625 615.855469 584.65625 C 623.332031 584.53125 632.675781 579.425781 638.03125 572.449219 C 643.015625 565.96875 643.386719 560.613281 639.277344 557 C 635.664062 553.757812 550.695312 523.859375 530.265625 518.75 C 505.597656 512.398438 472.457031 510.652344 448.660156 514.390625 Z M 448.660156 514.390625 " fill-opacity="1" fill-rule="nonzero"/><path fill="#00a3e4" d="M 502.359375 618.292969 C 484.917969 621.410156 460.496094 629.757812 434.460938 641.46875 C 388.738281 662.023438 380.761719 665.511719 369.925781 669.375 C 353.851562 674.980469 338.15625 678.84375 324.203125 680.585938 C 304.019531 683.078125 302.523438 687.4375 320.339844 691.675781 C 349.367188 698.402344 393.59375 700.394531 424.742188 696.160156 C 444.425781 693.542969 475.945312 685.820312 494.507812 679.09375 C 521.046875 669.375 552.316406 652.429688 572.375 636.609375 C 578.730469 631.625 579.976562 630.128906 579.601562 627.390625 C 579.351562 625.644531 577.855469 623.152344 576.113281 621.90625 C 567.890625 615.804688 527.523438 613.933594 502.359375 618.292969 Z M 502.359375 618.292969 " fill-opacity="1" fill-rule="nonzero"/></svg>