<svg xmlns="http://www.w3.org/2000/svg" xmlns:xlink="http://www.w3.org/1999/xlink" width="1024" zoomAndPan="magnify" viewBox="0 0 768 767.999994" height="1024" preserveAspectRatio="xMidYMid meet" version="1.0"><path fill="#00a3e4" d="M 360.847656 71.972656 C 352.03125 72.839844 325.214844 77.433594 313.671875 80.039062 C 273.695312 89.101562 225.03125 111.945312 192.628906 136.898438 C 173.386719 151.546875 147.441406 178.117188 130.929688 199.71875 C 99.519531 241.058594 77.421875 295.558594 70.222656 349.3125 C 67.863281 366.941406 68.234375 416.226562 70.84375 432.367188 C 73.324219 447.757812 75.4375 452.851562 80.648438 455.207031 C 90.457031 459.925781 122.734375 458.808594 144.957031 453.097656 C 151.414062 451.484375 170.035156 445.277344 186.421875 439.316406 C 239.804688 420.074219 262.027344 415.730469 303.117188 416.722656 C 324.222656 417.21875 332.417969 417.839844 345.949219 420.449219 C 376.488281 426.40625 411 436.835938 483.75 462.285156 C 550.539062 485.625 593.621094 497.167969 636.449219 503.253906 C 669.84375 508.09375 670.464844 507.722656 681.140625 478.175781 C 687.226562 461.042969 687.722656 456.574219 683.625 453.347656 C 680.894531 451.113281 679.527344 450.988281 668.230469 451.980469 C 632.105469 454.835938 600.199219 450.988281 561.960938 439.195312 C 525.089844 427.648438 499.515625 414.738281 454.078125 384.445312 C 397.46875 346.582031 378.226562 339.503906 337.632812 340.996094 C 314.042969 341.863281 290.828125 347.449219 272.703125 356.761719 C 265.007812 360.734375 266.867188 358.5 276.425781 352.414062 C 289.214844 344.222656 303.617188 337.269531 318.390625 332.179688 C 330.554688 328.082031 332.914062 327.710938 345.949219 327.710938 C 353.769531 327.585938 361.839844 328.082031 363.703125 328.578125 C 368.542969 329.945312 367.179688 328.082031 359.234375 322.125 C 347.4375 313.433594 333.535156 307.972656 319.628906 306.359375 L 312.058594 305.488281 L 317.890625 302.507812 C 328.941406 296.921875 341.355469 294.441406 358.984375 294.316406 C 381.953125 294.066406 396.722656 297.667969 417.953125 308.46875 C 429.996094 314.550781 442.160156 322.371094 476.300781 345.835938 C 486.855469 353.035156 500.882812 362.222656 507.339844 366.195312 C 531.792969 381.09375 565.8125 396.113281 588.28125 401.949219 C 615.71875 409.027344 653.707031 412.875 677.914062 410.765625 C 687.472656 410.019531 689.335938 409.523438 692.6875 406.417969 L 696.660156 402.941406 L 697.15625 386.554688 C 698.027344 353.285156 693.058594 320.261719 682.507812 288.480469 C 665.625 238.078125 640.792969 198.351562 602.183594 160.363281 C 587.039062 145.589844 580.585938 140.25 562.582031 127.464844 C 523.847656 100.152344 477.417969 81.777344 427.886719 74.328125 C 415.222656 72.46875 372.144531 70.976562 360.847656 71.972656 Z M 417.332031 114.054688 C 433.597656 116.167969 459.417969 122.621094 475.058594 128.210938 C 480.894531 130.445312 493.433594 135.90625 502.992188 140.625 C 569.90625 173.523438 621.550781 233.113281 643.152344 302.386719 C 647.996094 317.78125 652.09375 336.152344 653.332031 348.441406 C 654.078125 356.015625 653.953125 356.511719 650.476562 360.484375 C 647.375 363.960938 645.761719 364.707031 640.050781 365.203125 C 624.53125 366.445312 589.148438 356.140625 560.101562 341.863281 C 543.214844 333.671875 519.628906 318.773438 503.117188 306.109375 C 485.859375 292.824219 432.230469 244.410156 401.691406 214.492188 C 386.296875 199.34375 381.703125 196.488281 376.984375 198.601562 C 375.621094 199.21875 362.707031 210.890625 348.308594 224.546875 C 318.265625 252.726562 273.570312 293.074219 261.53125 302.757812 C 221.183594 334.910156 181.332031 356.015625 147.066406 363.09375 C 130.679688 366.445312 122.363281 365.949219 117.769531 361.230469 C 114.542969 358.125 114.417969 357.382812 114.664062 347.078125 C 114.914062 334.289062 121.246094 308.21875 128.199219 290.46875 C 160.722656 209.027344 221.554688 151.671875 303.617188 125.230469 C 339.988281 113.558594 382.074219 109.464844 417.332031 114.054688 Z M 417.332031 114.054688 " fill-opacity="1" fill-rule="nonzero"/><path fill="#00a3e4" d="M 368.296875 151.300781 C 366.308594 153.660156 367.675781 158.996094 370.652344 160.609375 C 374.625 162.722656 379.46875 160.113281 379.46875 155.894531 C 379.46875 154.03125 378.847656 151.796875 377.980469 150.929688 C 375.867188 148.816406 370.15625 149.066406 368.296875 151.300781 Z M 368.296875 151.300781 " fill-opacity="1" fill-rule="nonzero"/><path fill="#00a3e4" d="M 448.367188 153.660156 C 435.707031 159.617188 429.125 170.046875 429.125 184.324219 C 429.125 193.011719 431.484375 198.972656 437.941406 205.925781 C 444.894531 213.371094 453.582031 216.972656 463.265625 216.226562 C 471.957031 215.484375 476.796875 213.25 483.875 206.917969 C 491.570312 199.964844 494.304688 193.882812 494.179688 183.578125 C 494.179688 176.128906 493.683594 173.769531 490.453125 168.058594 C 481.640625 152.417969 463.886719 146.335938 448.367188 153.660156 Z M 448.367188 153.660156 " fill-opacity="1" fill-rule="nonzero"/><path fill="#00a3e4" d="M 298.898438 166.445312 C 292.566406 169.796875 289.460938 174.640625 289.585938 181.09375 C 289.835938 191.398438 299.394531 199.21875 309.324219 197.359375 C 315.160156 196.242188 321.988281 189.535156 322.980469 183.949219 C 325.339844 171.164062 310.445312 160.363281 298.898438 166.445312 Z M 298.898438 166.445312 " fill-opacity="1" fill-rule="nonzero"/><path fill="#00a3e4" d="M 227.140625 194.128906 C 222.796875 196.738281 219.320312 202.324219 219.320312 206.546875 C 219.320312 211.015625 223.167969 217.71875 226.894531 219.582031 C 235.085938 223.925781 245.640625 219.828125 248.867188 211.261719 C 250.480469 207.042969 250.355469 206.171875 247.875 200.957031 C 243.527344 192.019531 235.210938 189.164062 227.140625 194.128906 Z M 227.140625 194.128906 " fill-opacity="1" fill-rule="nonzero"/><path fill="#00a3e4" d="M 530.304688 211.757812 C 525.710938 214.242188 523.476562 218.214844 523.476562 223.675781 C 523.476562 234.230469 533.65625 239.566406 542.84375 233.980469 C 547.4375 231.25 550.167969 225.289062 549.050781 220.699219 C 547.683594 215.359375 541.726562 210.269531 536.886719 210.269531 C 534.648438 210.269531 531.671875 211.015625 530.304688 211.757812 Z M 530.304688 211.757812 " fill-opacity="1" fill-rule="nonzero"/><path fill="#00a3e4" d="M 286.855469 224.917969 C 284.621094 226.410156 283.628906 231.125 285.117188 233.855469 C 287.105469 237.582031 293.1875 237.207031 295.792969 233.234375 C 297.65625 230.382812 297.65625 229.882812 295.792969 227.027344 C 293.808594 223.925781 289.710938 223.054688 286.855469 224.917969 Z M 286.855469 224.917969 " fill-opacity="1" fill-rule="nonzero"/><path fill="#00a3e4" d="M 475.679688 244.285156 C 471.707031 250.246094 479.652344 256.699219 484.992188 251.859375 C 488.09375 249.003906 488.09375 246.023438 485.242188 243.417969 C 482.011719 240.4375 477.914062 240.808594 475.679688 244.285156 Z M 475.679688 244.285156 " fill-opacity="1" fill-rule="nonzero"/><path fill="#00a3e4" d="M 248 252.355469 C 244.894531 255.457031 244.769531 257.816406 247.378906 260.425781 C 250.976562 264.148438 259.046875 261.664062 259.046875 256.949219 C 259.046875 254.589844 256.191406 251.609375 253.210938 250.617188 C 251.351562 250.121094 249.734375 250.617188 248 252.355469 Z M 248 252.355469 " fill-opacity="1" fill-rule="nonzero"/><path fill="#00a3e4" d="M 177.730469 257.320312 C 161.46875 264.769531 158.613281 283.761719 171.773438 296.179688 C 187.289062 310.828125 214.480469 296.675781 211.375 275.445312 C 209.015625 260.050781 191.882812 250.742188 177.730469 257.320312 Z M 177.730469 257.320312 " fill-opacity="1" fill-rule="nonzero"/><path fill="#00a3e4" d="M 578.472656 259.925781 C 570.902344 264.519531 568.667969 273.335938 573.136719 280.660156 C 576.363281 286 580.957031 288.851562 586.667969 288.851562 C 595.976562 288.851562 602.929688 281.902344 602.929688 272.589844 C 602.929688 260.921875 588.777344 253.597656 578.472656 259.925781 Z M 578.472656 259.925781 " fill-opacity="1" fill-rule="nonzero"/><path fill="#00a3e4" d="M 508.457031 267.5 C 505.105469 273.957031 514.167969 280.535156 518.757812 274.824219 C 520 273.335938 520.996094 271.347656 520.996094 270.480469 C 520.996094 265.140625 511.0625 262.78125 508.457031 267.5 Z M 508.457031 267.5 " fill-opacity="1" fill-rule="nonzero"/><path fill="#00a3e4" d="M 552.777344 304.992188 C 550.417969 306.730469 549.671875 312.6875 551.535156 314.550781 C 554.265625 317.035156 558.113281 317.160156 560.597656 314.675781 C 563.824219 311.449219 563.824219 308.964844 560.722656 305.863281 C 557.867188 303.007812 555.878906 302.757812 552.777344 304.992188 Z M 552.777344 304.992188 " fill-opacity="1" fill-rule="nonzero"/><path fill="#00a3e4" d="M 149.921875 326.84375 C 146.445312 330.316406 146.695312 333.917969 150.417969 336.402344 C 153.027344 338.140625 154.269531 338.261719 156.628906 337.144531 C 159.605469 335.78125 160.351562 333.792969 159.730469 329.449219 C 159.234375 324.980469 153.273438 323.488281 149.921875 326.84375 Z M 149.921875 326.84375 " fill-opacity="1" fill-rule="nonzero"/><path fill="#00a3e4" d="M 606.902344 326.46875 C 603.054688 329.199219 603.675781 334.289062 608.144531 336.773438 C 611.125 338.511719 611.621094 338.511719 613.980469 336.402344 C 617.332031 333.296875 617.332031 328.828125 613.855469 326.46875 C 610.378906 323.988281 610.378906 323.988281 606.902344 326.46875 Z M 606.902344 326.46875 " fill-opacity="1" fill-rule="nonzero"/><path fill="#00a3e4" d="M 277.046875 458.683594 C 255.820312 460.546875 236.824219 465.886719 199.207031 480.410156 C 159.109375 495.804688 147.191406 498.410156 116.28125 498.410156 C 98.402344 498.285156 96.539062 498.535156 94.554688 500.769531 C 89.09375 506.730469 94.800781 518.648438 107.835938 528.453125 C 122.488281 539.503906 171.152344 544.34375 205.664062 538.136719 C 227.140625 534.414062 238.9375 530.566406 278.289062 514.425781 C 298.027344 506.355469 319.628906 498.039062 326.085938 496.050781 C 341.726562 491.085938 365.066406 486.246094 378.597656 485.128906 C 387.539062 484.382812 389.398438 483.886719 389.398438 482.148438 C 389.398438 479.539062 386.667969 478.300781 366.433594 471.347656 C 345.328125 464.269531 326.707031 460.175781 306.96875 458.558594 C 298.152344 457.941406 290.332031 457.441406 289.585938 457.441406 C 288.84375 457.566406 283.253906 458.0625 277.046875 458.683594 Z M 277.046875 458.683594 " fill-opacity="1" fill-rule="nonzero"/><path fill="#00a3e4" d="M 448.617188 512.6875 C 419.320312 517.15625 393.871094 526.714844 334.15625 555.394531 C 284.992188 578.980469 264.136719 585.808594 231.734375 588.914062 C 209.886719 591.023438 183.691406 588.417969 161.839844 582.085938 C 148.183594 578.113281 145.453125 578.113281 142.847656 582.085938 C 140.984375 584.941406 140.984375 585.4375 143.589844 589.535156 C 147.5625 595.988281 165.691406 611.507812 178.726562 619.578125 C 206.535156 636.710938 232.109375 643.539062 268.980469 643.660156 C 310.445312 643.785156 336.886719 636.585938 400.945312 607.660156 C 466.121094 578.113281 504.234375 569.050781 546.566406 572.648438 C 562.957031 574.015625 567.671875 574.761719 595.976562 580.097656 C 603.550781 581.589844 612.117188 582.707031 615.21875 582.707031 C 622.667969 582.582031 631.980469 577.492188 637.320312 570.539062 C 642.285156 564.085938 642.65625 558.746094 638.558594 555.144531 C 634.960938 551.917969 550.292969 522.121094 529.933594 517.03125 C 505.351562 510.703125 472.328125 508.964844 448.617188 512.6875 Z M 448.617188 512.6875 " fill-opacity="1" fill-rule="nonzero"/><path fill="#00a3e4" d="M 502.125 616.226562 C 484.742188 619.328125 460.410156 627.648438 434.464844 639.316406 C 388.902344 659.800781 380.957031 663.277344 370.15625 667.125 C 354.144531 672.710938 338.5 676.558594 324.597656 678.296875 C 304.484375 680.78125 302.996094 685.125 320.746094 689.347656 C 349.671875 696.050781 393.746094 698.035156 424.78125 693.816406 C 444.394531 691.210938 475.804688 683.511719 494.304688 676.808594 C 520.746094 667.125 551.90625 650.242188 571.894531 634.472656 C 578.226562 629.507812 579.464844 628.019531 579.09375 625.289062 C 578.847656 623.550781 577.355469 621.066406 575.617188 619.824219 C 567.425781 613.742188 527.203125 611.878906 502.125 616.226562 Z M 502.125 616.226562 " fill-opacity="1" fill-rule="nonzero"/></svg>